<?xml version="1.0" standalone="yes"?>
<svg width="900" height="650">
<path style="fill:#ba4c63; stroke:none;" d="M0 0L0 650L900 650L900 0L0 0z"/>
<path style="fill:#45b39c; stroke:none;" d="M221 211L243 209C243.003 179.438 268.488 151.703 299 153.039C311.892 153.604 321.138 161.279 333 164C343.405 125.971 389.437 109.918 423 126.809C429.444 130.052 435.851 134.699 440.711 140.039C443.286 142.87 446.24 149.215 450.184 150.184C453.606 151.024 457.824 147.753 461 146.774C466.74 145.005 473.036 144.574 479 145.171C495.759 146.846 502.296 157.121 516 163.972C519.863 165.903 524.833 164.727 529 165.464C539.493 167.318 549.258 171.591 556.96 179.09C563.705 185.658 568.696 194.72 570.245 204C571.064 208.903 569.146 218.464 573.318 221.852C579.771 227.092 592.221 224.675 600 229.468C607.635 234.173 613.366 241.655 616.532 250C617.591 252.79 617.254 256.918 619.027 259.302C621.589 262.747 627.639 264.467 630.985 267.326C640.976 275.859 644 286.449 644 299C661.361 301.34 673.646 313.355 678 330C687.578 326.071 695.694 325 706 325C706 207.984 625.91 106.453 513 76.5833C424.072 53.0582 321.674 82.5063 260.715 152C246.117 168.642 227.274 189.222 221 211z"/>
<path style="fill:#7f8080; stroke:none;" d="M461 69L461 70L470 70L461 69M418 70L418 71L425 71L418 70M475 70L475 71L480 71L475 70z"/>
<path style="fill:#308c74; stroke:none;" d="M333 164C321.735 159.876 312.513 153.588 300 153.039C268.218 151.645 243 177.825 243 209C236.875 209 226.764 207.74 221.39 211.179C215.264 215.1 211.659 229.391 209.343 236C200.705 260.651 194 287.8 194 314L212 313C203.604 283.135 221.842 252.022 255 252C247.199 214.186 275.36 184 313 184L313 183L281 183C282.054 160.268 311.637 153.716 321 175C332.005 170.762 338.315 172.701 348 179C373.997 142.842 423.079 144.513 448 181C460.296 175.185 470.895 168.038 485 167.09C529.253 164.113 559 202.016 559 243C571.381 243.533 580.528 249.17 591 255C590.993 244.757 587.783 235.738 580.816 228.015C578.218 225.135 574.011 223.001 572.028 219.675C569.699 215.771 571.204 209.402 570.572 205C569.297 196.12 565.531 187.871 559.674 181.015C552.173 172.234 541.171 167.438 530 165.464C525.833 164.727 520.863 165.903 517 163.972C503.296 157.121 496.759 146.846 480 145.171C473.746 144.545 467.073 144.83 461 146.49C457.888 147.34 453.444 150.634 450.184 149.582C446.272 148.319 443.415 141.981 440.711 139.09C435.84 133.881 429.433 129.378 423 126.32C391.039 111.129 339.832 124.324 333 164z"/>
<path style="fill:#236d58; stroke:none;" d="M353 193L311 193L313 184C276.723 184 244.221 213.642 255 252C223.244 252.003 200.647 282.738 212 313C207.383 312.417 199.481 310.202 195.603 313.858C192.58 316.708 193.994 324.237 194 328C194.021 341.169 195.196 354.999 197.325 368C203.537 405.934 219.03 442.763 241.291 474C248.824 484.571 257.397 497.374 268 505C272.634 488.953 287.984 480.187 304 484C308.865 473.849 301.934 463.464 316 458L316 457C303.249 450.381 301.321 434.703 316 429L316 428C302.725 421.113 301.656 406.327 316 400L316 399C303.718 393.139 308.73 386.989 305.612 377.17C303.625 370.913 296.528 367.621 297.256 360C297.997 352.247 305.717 346.01 311 341.09L338 316.09C342.293 312.092 348.283 308.379 350.972 303C353.187 298.571 352 291.823 352 287C352 274.422 349.242 258.186 352.318 246.001C354.08 239.019 360.671 238.099 365 243C370.549 240.441 373.965 237.98 379 243C381.483 241.923 384.24 239.68 386.999 239.542C397.436 239.02 395 255.728 395 262C406.993 256.407 418.529 242.245 428 233C432.949 228.169 439.479 221.128 447 221.198C460.754 221.327 474.466 241.294 484 249.576C511.74 273.673 537.261 300.327 565 324.424C575.488 333.535 594.823 346.537 597 361C629.777 356.858 658.907 380.202 659 414L682 403C677.605 381.977 661.144 367.111 640 364C648.86 346.444 643.791 324.264 627.985 312.49C623.502 309.15 612.926 307.807 610.028 303.567C606.44 298.319 609.493 287.31 607.702 281C601.559 259.356 581.587 243.466 559 243C559 229.419 558.249 217.358 551.89 205C531.651 165.665 483.079 157.355 448 181C434.359 152.332 392.762 144.115 367 160.066C360.78 163.917 351.704 169.641 349.272 177C347.746 181.62 352.566 188.06 353 193z"/>
<path style="fill:#84b2a6; stroke:none;" d="M297 161L297 162L305 162L297 161z"/>
<path style="fill:#d8d8d8; stroke:none;" d="M281 182L315 183L321 176C316.776 152.682 282 160.419 281 182z"/>
<path style="fill:#cbe2dc; stroke:none;" d="M327 172L327 173L335 173L327 172z"/>
<path style="fill:#7eb7a8; stroke:none;" d="M335.667 172.333L336.333 172.667L335.667 172.333z"/>
<path style="fill:#ffffff; stroke:none;" d="M312 193L352 193C351.924 166.348 312.241 166.334 312 193z"/>
<path style="fill:#91b6ac; stroke:none;" d="M349 181L350 182L349 181z"/>
<path style="fill:#5a9f8d; stroke:none;" d="M281 182L281 183L314 184C309.22 178.53 288.211 182 281 182z"/>
<path style="fill:#c8dbd5; stroke:none;" d="M352 188L352 193L353 193L352 188z"/>
<path style="fill:#91b6ac; stroke:none;" d="M311 189L311 193L312 193L311 189z"/>
<path style="fill:#d8d8d8; stroke:none;" d="M330 221L356 222L362 216C354.472 200.223 330.463 201.745 330 221z"/>
<path style="fill:#c8dbd5; stroke:none;" d="M365 213L365 214L373 214L365 213z"/>
<path style="fill:#ffffff; stroke:none;" d="M354 229L386 229C383.347 209.708 354.61 208.449 354 229z"/>
<path style="fill:#91b6ac; stroke:none;" d="M383 220L384 221L383 220z"/>
<path style="fill:#5e6639; stroke:none;" d="M443 221L443 222L451 222L443 221z"/>
<path style="fill:#995f1a; stroke:none;" d="M394 263C394 254.428 397.399 240.274 386 239C386 250.182 389.99 268.727 380 276C380 265.924 384.774 242.584 373 239C373 253.445 378.39 279.447 366 289L366 253C366 246.517 366.52 240.555 359 239L359 277C359 282.414 360.31 289.869 358.397 294.996C356.465 300.172 349.866 304.233 346 307.986C334.65 319.003 322.728 329.557 311 340.17C304.397 346.144 290.371 361.024 300.653 370.573C304.23 373.896 308.628 368.309 311 366C319.449 357.773 328.539 350.199 337 341.986C363.053 316.697 391.113 293.451 417 267.997C424.795 260.332 437.5 243.739 450 246.397C464.04 249.383 479.988 270.234 490 279.985C513.615 302.984 538.278 325.481 563 347.285C572.155 355.36 581.51 368.549 593 373C602.299 353.421 587.28 344.637 574 331.961C545.464 304.72 516.586 277.381 487 251.285C477.484 242.892 464.076 223.978 451 222.189C428.773 219.148 410.369 251.47 394 263z"/>
<path style="fill:#bad1cb; stroke:none;" d="M385.333 224.667L385.667 225.333L385.333 224.667z"/>
<path style="fill:#389b83; stroke:none;" d="M577 224C581.188 230.017 586.019 235.066 588.792 242C590.575 246.456 589.956 251.856 592.028 256C596.193 264.331 603.652 269.645 606.794 279C609.289 286.43 606.311 297.037 609.603 303.567C611.637 307.602 623.935 310.099 627.985 313.239C644.67 326.174 646.983 345.298 640 364C661.28 368.879 675.879 381.851 682 403C685.427 402.184 691.617 403.026 694.146 400.397C697.874 396.52 698.392 387.075 699.735 382C704.553 363.782 706 343.798 706 325C696.05 325 686.899 324.941 678 330C674.686 312.97 661.565 300.435 644 299C644 286.645 641.822 275.931 631.961 267.326C628.397 264.216 621.595 262.434 619.027 258.582C616.261 254.432 616.277 247.703 613.687 243C605.95 228.953 592.225 224.002 577 224z"/>
<path style="fill:#91b6ac; stroke:none;" d="M353 226L353 230L354 230L353 226z"/>
<path style="fill:#c8dbd5; stroke:none;" d="M354 229L354 230L386 230L354 229z"/>
<path style="fill:#4c2e0b; stroke:none;" d="M352 302C359.317 298.077 358 291.324 358 284L358 239C350.85 242.446 352 249.073 352 256L352 302z"/>
<path style="fill:#734713; stroke:none;" d="M358 239L358 297L359 297L359 258L358 239z"/>
<path style="fill:#4c2e0b; stroke:none;" d="M366 289C377.605 282.778 372 250.898 372 239C365.163 241.802 366 247.533 366 254L366 289z"/>
<path style="fill:#734713; stroke:none;" d="M372 239L372 284L373 284C373 271.258 376.91 250.701 372 239z"/>
<path style="fill:#4c2e0b; stroke:none;" d="M380 276C390.38 270.997 386 248.953 386 239C375.62 244.003 380 266.047 380 276z"/>
<path style="fill:#ba7f3e; stroke:none;" d="M471 244C476.2 255.152 490.185 263.617 499 272C503.395 276.18 508.061 281.337 514 283C512.232 271.573 492.327 259.361 484 251.83C480.009 248.221 476.784 243.183 471 244z"/>
<path style="fill:#5e6639; stroke:none;" d="M394 244C394 249.091 391.978 259.486 396 263L394 244z"/>
<path style="fill:#4c2e0b; stroke:none;" d="M302 373L302 374L308 377C318.153 364.569 323.682 375.151 335 376.853C349.025 378.961 364.809 377 379 377L502 377C521.319 377 542.872 379.716 561.961 376.856C566.92 376.113 569.976 371.279 575 370.437C581.512 369.345 585.602 376.149 592 374C582.68 362.442 569.86 353.022 559 342.91C534.37 319.977 509.955 296.75 485 274.17C474.794 264.935 459.474 243.586 444 246.329C436.822 247.602 432.069 253.197 427 257.91C418.354 265.951 409.542 273.806 401 281.961C369.175 312.341 336.973 346.354 302 373z"/>
<path style="fill:#ba7f3e; stroke:none;" d="M374 289C379.415 287.48 382.844 283.035 387 279.424C396.28 271.364 411.777 261.17 417 250C411.542 249.229 407.891 253.856 404 257.285C395.482 264.794 375.784 277.437 374 289z"/>
<path style="fill:#724612; stroke:none;" d="M433 277L461 277C451.463 263.47 442.606 263.476 433 277z"/>
<path style="fill:#ba7f3e; stroke:none;" d="M494 276C495.806 287.706 516.358 300.681 525 308.285C528.789 311.62 531.65 315.756 537 315C531.713 303.664 516.343 293.522 507 285.285C502.978 281.74 499.236 277.47 494 276z"/>
<path style="fill:#756c6c; stroke:none;" d="M196 285L196 289L197 289L196 285z"/>
<path style="fill:#724612; stroke:none;" d="M403 305C415.481 305 429.946 308.394 438 297C432.028 297 423.29 298.967 420 293C427.44 293 440.501 295.615 446 290C427.725 290 414.706 288.382 403 305z"/>
<path style="fill:#ba7f3e; stroke:none;" d="M440 297L454 297C449.743 289.6 444.589 290.567 440 297z"/>
<path style="fill:#724612; stroke:none;" d="M448 290C454.294 296.427 468.562 291.991 477 294L477 296L456 297C464.054 308.394 478.519 305 491 305C479.256 288.328 466.352 290 448 290z"/>
<path style="fill:#756c6c; stroke:none;" d="M195 293L195 299L196 299L195 293z"/>
<path style="fill:#995f1a; stroke:none;" d="M420 293C422.097 299.317 432.487 297 438 297L431 305L463 305L456 297L477 296L477 294L451 293L451 294L454 297L440 297L443 293L420 293z"/>
<path style="fill:#7f8080; stroke:none;" d="M704 293L704 300L705 300L704 293z"/>
<path style="fill:#724612; stroke:none;" d="M372 332L372 333C383.682 333 399.437 336.61 407 326L386 326L386 322C394.728 322 409.767 325.063 416 318L387 319.028L372 332z"/>
<path style="fill:#995f1a; stroke:none;" d="M412 321L412 322L443 323L443 325L408 326L411 322L386 322L386 326L407 326L401 333L494 333C489.576 328.215 484.149 321.347 478 318.858C472.818 316.76 465.502 318 460 318C445.803 318 424.625 314.055 412 321z"/>
<path style="fill:#724612; stroke:none;" d="M478 318L478 319L493 331.821L522 333C508.911 316.767 497.191 318 478 318z"/>
<path style="fill:#ba7f3e; stroke:none;" d="M306 361C311.399 361.763 314.23 357.573 318 354.17L341 333.17C344.727 329.792 348.765 327.408 348 322L319 346.911L306 361M408 326L443 325L443 323C434.777 320.569 413.772 319.07 408 326z"/>
<path style="fill:#6e5d5d; stroke:none;" d="M194 336L194 345L195 345L194 336z"/>
<path style="fill:#797473; stroke:none;" d="M705 337L705 348L706 348L705 337z"/>
<path style="fill:#724612; stroke:none;" d="M339 364L368 363C367.79 356.514 372.748 357.868 377 354.682C388.583 346.002 396.68 347 411 347L475 347C484.994 347 496.127 345.612 506 347.148C512.41 348.145 515.191 355.039 521 357.258C528.748 360.218 540.755 358 549 358C536.367 341.481 516.693 346 498 346L394 346C383.609 346 367.762 343.004 358 346.603C351.325 349.064 343.043 358.277 339 364z"/>
<path style="fill:#995f1a; stroke:none;" d="M375 357L412 357C413.862 357 423.202 356.063 422.369 359.83C421.598 363.316 412.502 362 410 362L369 362L374 358L374 357C368.587 357.178 367.452 358.738 367 364L527 364L526 362L553 362C546.944 354.73 530.782 358 522 358L525 362L500 361L500 359L521 358C508.699 344.695 496.959 347 480 347L411 347C396.862 347 384.087 344.101 375 357z"/>
<path style="fill:#ba7f3e; stroke:none;" d="M435 350L435 352C451.654 356.923 474.609 353 492 353L492 349C474.609 349 451.654 345.077 435 350z"/>
<path style="fill:#797473; stroke:none;" d="M704 351L704 357L705 357L704 351z"/>
<path style="fill:#5e6639; stroke:none;" d="M297 357L297 365L298 365L297 357z"/>
<path style="fill:#ba7f3e; stroke:none;" d="M369 362L411 362C413.088 362 423.888 363.241 423.079 359.17C422.363 355.566 412.575 357 410 357C398.939 357 376.451 352.6 369 362M500 359L500 361L525 362C519.976 355.968 507.073 356.909 500 359z"/>
<path style="fill:#7c6367; stroke:none;" d="M196 359L196 363L197 363L196 359z"/>
<path style="fill:#134435; stroke:none;" d="M597 361C596.012 366.719 593.617 371.426 589 375C590.823 385.769 591.727 393.838 580 399L580 400C593.961 405.482 594.115 422.528 580 428L580 429C595.409 434.242 592.578 450.74 580 457C591.909 465.41 595.501 478.604 580 486L580 487C595.073 491.635 611.22 490 627 490C632.487 490 640.981 491.577 645.961 488.972C652.948 485.317 658.691 474.437 662.921 468C676.084 447.97 687.316 426.097 694 403C679.841 403 670.555 405.468 659 414C658.978 380.898 630.452 354.79 597 361z"/>
<path style="fill:#5f3a0f; stroke:none;" d="M526 362L527 364L400 364C380.472 364 357.003 367.524 338 363L353 365L393 365L556 365C551.57 358.73 533.164 362 526 362z"/>
<path style="fill:#977042; stroke:none;" d="M316 370L316 371L323 371L316 370M573 370L573 371L580 371L573 370z"/>
<path style="fill:#e2b279; stroke:none;" d="M316 399L316 400C301.575 404.296 302.069 423.264 316 428L316 429C301.09 432.555 302.615 452.447 316 457L316 458C306.255 460.323 303.901 469.183 306 478L308 478C310.217 470.502 312.868 454.2 324.956 462.703C328.864 465.452 329.402 470.49 334 472C333.633 464.938 330.203 459.454 323 458L323 457C337.419 452.706 337.398 433.279 323 429L323 428C337.437 423.709 337.445 404.293 323 400C327.335 397.429 331.724 395.151 333.347 389.999C337.192 377.797 325.917 367.645 314.004 371.564C300.303 376.071 304.333 395.264 316 399M573 399L573 400C558.756 404.561 558.871 423.194 573 428L573 429C558.563 433.3 559.033 452.249 573 457L573 458C557.919 461.596 559.209 483.015 574 486L574 487C557.845 489.161 558.686 514.021 575 514.955C592.432 515.954 597.686 490.571 580 487L580 486C595.827 480.932 592.785 463.363 580 457C595.372 451.625 593.095 434.517 580 428C593.582 423.251 595.151 403.958 580 400C595.226 390.971 593.172 366.083 572.004 371.419C557.248 375.138 560.776 394.842 573 399z"/>
<path style="fill:#995f1a; stroke:none;" d="M316.004 374.743C303.477 379.529 310.206 399.992 322.996 395.106C335.669 390.264 328.832 369.842 316.004 374.743M573.004 374.859C559.853 380.189 568.195 400.676 580.96 394.911C593.611 389.196 585.655 369.732 573.004 374.859z"/>
<path style="fill:#734713; stroke:none;" d="M332 377L334 390L395 390L395 389L340 389C354.706 374.416 371.5 378 391 378L504 378C523.293 378 539.502 374.542 554 389L492 389L492 390L563 390L564 377L332 377z"/>
<path style="fill:#995f1a; stroke:none;" d="M340 389C357.701 389 378.768 385.897 396 390C401.231 383.401 409.343 385 417 385L470 385C477.657 385 485.769 383.401 491 390C510.3 385.405 534.164 389 554 389C543.084 373.546 523.784 378 507 378L386 378C369.431 378 350.825 373.759 340 389z"/>
<path style="fill:#ba7f3e; stroke:none;" d="M350 383C366.654 387.923 389.609 384 407 384C405.954 377.73 400.195 379 395 379L363 379C357.895 379 352.749 378.014 350 383z"/>
<path style="fill:#8e946b; stroke:none;" d="M305 380L305 383L306 383L305 380z"/>
<path style="fill:#ab7432; stroke:none;" d="M400 385L400 386L487 386L460 385L400 385z"/>
<path style="fill:#e2b279; stroke:none;" d="M398.228 387.028C394.394 389.377 394.551 395.395 399.109 396.682C405.555 398.502 414.318 397 421 397L467 397C472.702 397 485.115 399.314 489.678 395.397C494.318 391.414 489.507 386.457 484.996 386.059C464.346 384.235 442.739 386 422 386C415.75 386 403.674 383.691 398.228 387.028z"/>
<path style="fill:#8e946b; stroke:none;" d="M305 387L305 390L306 390L305 387z"/>
<path style="fill:#4c2e0b; stroke:none;" d="M323 399L323 400L354 402L410 402L410 398C402.958 397.999 396.659 398.146 395 390L354 390L335.209 390.318L323 399M492 390C490.397 395.69 486.728 397.814 481 398L481 402L541 402L573 400L561.83 390.603L540 390L492 390z"/>
<path style="fill:#b68d5d; stroke:none;" d="M399 397L399 398L488 398L461 397L399 397z"/>
<path style="fill:#331d07; stroke:none;" d="M410 398L410 483C410 492.469 406.923 506.967 415.58 513.397C420.009 516.686 428.752 515 434 515L481 515L481 398L410 398z"/>
<path style="fill:#734713; stroke:none;" d="M329 402L329 403L410 403L385 402L329 402M481 402L481 403L568 403L541 402L481 402z"/>
<path style="fill:#26705c; stroke:none;" d="M683 402L683 403L694 403L683 402z"/>
<path style="fill:#995f1a; stroke:none;" d="M316.001 403.746C302.73 408.687 310.793 428.455 323.985 423.258C336.027 418.513 328.32 399.16 316.001 403.746M330 403L334 417L410 417L410 403L330 403M481 403L481 417L562 417L566 403L481 403M573.004 403.743C560.392 408.563 567.286 428.527 579.985 424.293C593.861 419.667 586.351 398.643 573.004 403.743z"/>
<path style="fill:#ba7f3e; stroke:none;" d="M339 405L339 409L395 409L395 405L339 405z"/>
<path style="fill:#948960; stroke:none;" d="M590.333 408.667L590.667 409.333L590.333 408.667z"/>
<path style="fill:#ba7f3e; stroke:none;" d="M491.662 411.008C487.407 414.579 497.643 414.997 499 415L534 415C536.786 415 544.053 416.254 545.824 413.455C548.503 409.222 536.607 410 535 410L504 410C500.788 410 494.3 408.795 491.662 411.008z"/>
<path style="fill:#8e946b; stroke:none;" d="M305 416L305 419L306 419L305 416z"/>
<path style="fill:#734713; stroke:none;" d="M334 417L334 418L410 418L386 417L334 417M481 417L481 418L562 418L537 417L481 417z"/>
<path style="fill:#4c2e0b; stroke:none;" d="M333 418C331.239 423.166 327.911 425.839 323 428L323 429L354 431L410 431L410 418L333 418M481 418L481 431L541 431L573 429L561.625 418.603L538 418L481 418z"/>
<path style="fill:#be894a; stroke:none;" d="M317 424L317 425L322 425L317 424z"/>
<path style="fill:#616d4f; stroke:none;" d="M581.667 427.333L582.333 427.667L581.667 427.333z"/>
<path style="fill:#995f1a; stroke:none;" d="M329 431L334 445L410 445L410 431L329 431M481 431L481 445L562 445L567 431L481 431M315.015 432.858C302.578 438.051 311.293 457.289 323.985 451.991C336.522 446.757 327.834 427.506 315.015 432.858z"/>
<path style="fill:#ba7f3e; stroke:none;" d="M504 433C505.655 437.987 510.459 437 515 437L547 437C549.929 437 557.975 438.377 559.824 435.455C562.561 431.131 549.662 432 548 432L540 432L525 432C518.03 432 510.817 431.377 504 433z"/>
<path style="fill:#995f1a; stroke:none;" d="M573.004 432.743C560.392 437.563 567.286 457.528 579.985 453.293C592.908 448.984 586.357 427.64 573.004 432.743z"/>
<path style="fill:#ba7f3e; stroke:none;" d="M349 437L406 437C404.261 431.759 398.7 433 394 433L361 433C356.3 433 350.74 431.759 349 437z"/>
<path style="fill:#948960; stroke:none;" d="M590.333 437.667L590.667 438.333L590.333 437.667z"/>
<path style="fill:#b98344; stroke:none;" d="M587 440L587 446L588 446L587 440z"/>
<path style="fill:#8e946b; stroke:none;" d="M305.333 445.667L305.667 446.333L305.333 445.667z"/>
<path style="fill:#734713; stroke:none;" d="M334 445L334 446L410 446L386 445L334 445M481 445L481 446L562 446L537 445L481 445z"/>
<path style="fill:#4c2e0b; stroke:none;" d="M323 457L323 458C350.458 463.098 382.069 459 410 459L410 446L360 446L336.13 446.318L323 457M481 446L481 459C510.507 459 543.996 463.385 573 458L573 457C568.192 454.504 564.76 451.178 563 446L481 446z"/>
<path style="fill:#995f1a; stroke:none;" d="M328 459C331.092 463.739 334.096 467.112 333 473C356.435 478.579 385.897 474 410 474L410 459L328 459M481 459L481 474L562 474C562.146 467.925 564.156 463.741 569 460L542 459L481 459M309 476C316.505 471.486 321.291 469.9 330 471C329.046 462.441 319.278 456.494 312.228 463.344C308.663 466.808 309.003 471.419 309 476z"/>
<path style="fill:#ba7f3e; stroke:none;" d="M336 466L392 466C391.005 460.041 386.044 461 381 461L348 461C342.805 461 337.046 459.73 336 466M484 462L484 464C500.654 468.923 523.609 465 541 465C539.117 459.328 531.988 461 527 461C513.704 461 496.754 458.23 484 462z"/>
<path style="fill:#995f1a; stroke:none;" d="M572.015 462.028C559.49 468.473 569.444 487.174 581.956 480.682C593.722 474.577 583.814 455.957 572.015 462.028z"/>
<path style="fill:#134435; stroke:none;" d="M304 484C292.543 480.613 280.149 484.369 272.927 494.015C270.233 497.614 266.926 502.572 269.619 506.996C272.24 511.301 277.303 514.578 281 517.925C291.896 527.791 309.296 544.3 324 547.607C338.926 550.963 357.694 548 373 548C386.409 548 406.281 551.585 415.351 538.985C430.684 517.683 402.489 494.041 383 510C382.822 488.831 362.506 479.255 344 486C338.294 466.61 311.472 464.714 304 484z"/>
<path style="fill:#4c2e0b; stroke:none;" d="M336 474L336 475L344 486L372 486.896L410 487L410 474L336 474M481 474L481 487L572 487L560.61 474.603L537 474L481 474z"/>
<path style="fill:#a07849; stroke:none;" d="M572.667 486.333L573.333 486.667L572.667 486.333z"/>
<path style="fill:#995f1a; stroke:none;" d="M371 487L371 488L382.634 500.972L410 502L410 487L371 487M481 487L481 502L562 502C562.338 495.753 565.192 491.839 570 488L543 487L481 487z"/>
<path style="fill:#ba7f3e; stroke:none;" d="M503 490L503 494L559 494L559 490L503 490z"/>
<path style="fill:#995f1a; stroke:none;" d="M572.015 491.028C559.501 497.483 569.647 516.069 581.956 509.682C593.759 503.558 583.99 484.852 572.015 491.028z"/>
<path style="fill:#216854; stroke:none;" d="M587 490C588.398 492.562 590.153 495.092 590.721 498C594.722 518.481 566.982 515 555 515L417 515C422.18 529.213 416.249 543.332 401 547.239C392.91 549.312 383.308 548 375 548L325 548L325 549C405.039 595.716 510.588 590.153 588 541.053C609.122 527.656 631.479 510.634 646 490L587 490z"/>
<path style="fill:#4c2e0b; stroke:none;" d="M382 502L383 510C392.654 504.195 399.632 503.155 410 508L410 502L382 502M481 502L481 515L571 515L571 514L562 502L481 502z"/>
<path style="fill:#6d5a5b; stroke:none;" d="M418 579L418 580L425 580L418 579M475 579L475 580L480 580L475 579M461 580L461 581L470 581L461 580z"/>
</svg>
